<svg width="38" height="38" viewBox="0 0 38 38" fill="none" xmlns="http://www.w3.org/2000/svg">
<g filter="url(#filter0_i_511_25)">
<rect width="38" height="38" rx="5" fill="url(#paint0_linear_511_25)"/>
<rect x="0.5" y="0.5" width="37" height="37" rx="4.5" stroke="#2A2A2A"/>
<path d="M16.962 28L15.842 24.066C15.0033 23.5733 14.32 22.8777 13.792 21.979C13.264 21.0803 13 20.0873 13 19C13 17.9127 13.264 16.9197 13.792 16.021C14.32 15.1223 15.0033 14.4267 15.842 13.934L16.962 10H21.039L22.158 13.935C22.9967 14.427 23.68 15.1223 24.208 16.021C24.736 16.9197 25 17.9127 25 19C25 20.0873 24.736 21.0803 24.208 21.979C23.68 22.8777 22.9967 23.5733 22.158 24.066L21.038 28H16.962ZM22.538 22.538C23.5127 21.5627 24 20.3833 24 19C24 17.6167 23.5123 16.4377 22.537 15.463C21.5617 14.4883 20.3827 14.0007 19 14C17.6173 13.9993 16.4383 14.487 15.463 15.463C14.4877 16.439 14 17.618 14 19C14 20.382 14.4877 21.5613 15.463 22.538C16.4383 23.5147 17.6173 24.002 19 24C20.3827 23.998 21.562 23.5103 22.538 22.537" fill="white"/>
</g>
<defs>
<filter id="filter0_i_511_25" x="0" y="0" width="38" height="42" filterUnits="userSpaceOnUse" color-interpolation-filters="sRGB">
<feFlood flood-opacity="0" result="BackgroundImageFix"/>
<feBlend mode="normal" in="SourceGraphic" in2="BackgroundImageFix" result="shape"/>
<feColorMatrix in="SourceAlpha" type="matrix" values="0 0 0 0 0 0 0 0 0 0 0 0 0 0 0 0 0 0 127 0" result="hardAlpha"/>
<feOffset dy="4"/>
<feGaussianBlur stdDeviation="2"/>
<feComposite in2="hardAlpha" operator="arithmetic" k2="-1" k3="1"/>
<feColorMatrix type="matrix" values="0 0 0 0 0 0 0 0 0 0 0 0 0 0 0 0 0 0 0.25 0"/>
<feBlend mode="normal" in2="shape" result="effect1_innerShadow_511_25"/>
</filter>
<linearGradient id="paint0_linear_511_25" x1="5.50248e-07" y1="1.52" x2="42.2676" y2="7.41833" gradientUnits="userSpaceOnUse">
<stop stop-color="#101010"/>
<stop offset="0.500849" stop-color="#1A1A1A"/>
<stop offset="1" stop-color="#101010"/>
</linearGradient>
</defs>
</svg>
